<?xml version="1.0" encoding="utf-8"?>
<!-- Generator: Adobe Illustrator 24.0.1, SVG Export Plug-In . SVG Version: 6.00 Build 0)  -->
<svg version="1.1" id="Layer_1" xmlns="http://www.w3.org/2000/svg" xmlns:xlink="http://www.w3.org/1999/xlink" x="0px" y="0px"
	 viewBox="0 0 500 500" style="enable-background:new 0 0 500 500;" xml:space="preserve">
<style type="text/css">
	.st0{fill:#EACEB4;}
</style>
<g>
	<rect x="73.22" y="73.22" class="st0" width="353.55" height="353.55"/>
</g>
<g>
	<path d="M250,11.31L488.69,250L250,488.69L11.31,250L250,11.31 M250,0L0,250l250,250l250-250L250,0L250,0z"/>
</g>
<g>
	<path d="M160.92,268.44c1.13,7.2,8.39,11.48,18.14,11.48c9.57,0,16.12-4.64,16.12-10.94c0-5.65-4.04-8.86-14.81-11.06l-9.04-1.78
		c-17.13-3.39-25.51-11.6-25.51-24.38c0-15.7,13.68-26.11,32.77-26.11c20.04,0,32.65,10.47,32.95,26.23h-16.95
		c-0.59-7.32-6.96-11.72-16-11.72c-8.86,0-14.81,4.16-14.81,10.47c0,5.29,4.16,8.56,14.27,10.59l9.1,1.84
		c18.14,3.63,26.05,10.94,26.05,23.97c0,16.77-13.14,27.36-34.61,27.36c-20.46,0-34.08-9.75-34.61-25.93H160.92z"/>
	<path d="M236.32,292.94v-85.82h17.96v85.82H236.32z"/>
	<path d="M330.39,272.12h-30.15l-6.54,20.82h-18.44l29.8-85.82h21.11l29.85,85.82h-19.09L330.39,272.12z M304.11,258.68h22.42
		l-11-35.15h-0.42L304.11,258.68z"/>
</g>
</svg>
